<?xml version="1.0" encoding="UTF-8" standalone="no"?>
<!-- Created with Inkscape (http://www.inkscape.org/) -->

<svg
   width="512"
   height="512"
   viewBox="0 0 512 512"
   version="1.1"
   id="svg1"
   xml:space="preserve"
   inkscape:version="1.4.2 (ebf0e940d0, 2025-05-08)"
   sodipodi:docname="icon.svg"
   xmlns:inkscape="http://www.inkscape.org/namespaces/inkscape"
   xmlns:sodipodi="http://sodipodi.sourceforge.net/DTD/sodipodi-0.dtd"
   xmlns="http://www.w3.org/2000/svg"
   xmlns:svg="http://www.w3.org/2000/svg"><sodipodi:namedview
     id="namedview1"
     pagecolor="#ffffff"
     bordercolor="#666666"
     borderopacity="1.0"
     inkscape:showpageshadow="2"
     inkscape:pageopacity="0.0"
     inkscape:pagecheckerboard="0"
     inkscape:deskcolor="#d1d1d1"
     inkscape:document-units="px"
     inkscape:zoom="0.69568454"
     inkscape:cx="215.61497"
     inkscape:cy="435.54224"
     inkscape:window-width="1920"
     inkscape:window-height="1011"
     inkscape:window-x="0"
     inkscape:window-y="0"
     inkscape:window-maximized="1"
     inkscape:current-layer="g16" /><defs
     id="defs1" /><rect
     style="display:inline;fill:#000000;stroke-width:8.65066"
     id="rect16"
     width="512"
     height="512"
     x="0"
     y="0"
     inkscape:label="bg" /><g
     inkscape:label="Layer 1"
     inkscape:groupmode="layer"
     id="layer1"><g
       id="g16"
       transform="matrix(0.4492989,0,0,0.4492989,-467.3777,0.48342451)"><g
         id="g18"
         transform="matrix(1.1929623,0,0,1.1929623,987.58564,-55.757579)"><path
           fill="#f8e3c2"
           d="m 452.137,173.205 c 5.175,-0.485 13.933,-0.323 19.131,-0.021 36.795,2.221 71.742,16.883 99.107,41.58 4.967,4.481 14.974,11.812 14.221,19.138 -0.292,3.055 -1.808,5.862 -4.203,7.781 -3.142,2.545 -8.782,3.626 -11.84,1.704 -5.61,-3.526 -11.096,-9.738 -16.615,-14.218 -25.699,-20.86 -49.165,-30.67 -82.022,-33.271 -38.448,-3.967 -83.487,14.768 -110.345,41.87 -16.32,16.468 -29.987,-2.404 -18.694,-13.993 30.066,-30.851 68.573,-47.51 111.26,-50.57 z"
           id="path11" /><path
           fill="#f8e3c2"
           d="m 449.242,227.688 c 3.726,-0.62 16.604,-0.409 21.055,-0.157 27.598,1.758 55.146,14.458 74.476,34.201 5.451,5.566 5.018,12.994 -1.281,17.661 -9.795,7.257 -16.675,-3.75 -23.51,-9.117 -13.813,-10.846 -30.033,-17.137 -47.359,-19.592 -25.018,-3.397 -50.519,4.165 -70.444,19.493 -4.309,3.315 -8.689,9.362 -13.807,10.976 -5.46,1.722 -11.674,-0.638 -13.596,-6.383 -3.417,-10.216 6.104,-16.901 13.049,-22.411 17.903,-14.097 38.917,-22.033 61.417,-24.671 z"
           id="path12" /><path
           fill="#f8e3c2"
           d="m 453.641,281.188 c 17.485,-2.145 41.348,4.76 53.547,17.829 4.502,4.97 3.435,13.247 -1.974,17.192 -9.078,6.621 -15.71,-2.671 -23.275,-6.707 -5.326,-2.842 -8.575,-3.801 -14.321,-4.895 -11.921,-1.517 -22.809,-0.028 -32.945,7.233 -3.202,2.256 -5.496,5.646 -9.539,6.389 -11.629,2.051 -18.15,-12.149 -10.258,-20.154 9.398,-9.533 25.843,-15.578 38.765,-16.887 z"
           id="path13" /><path
           fill="#f8e3c2"
           d="m 457.317,344.179 c 12.158,-1.947 23.587,6.344 25.512,18.505 1.925,12.161 -6.385,23.576 -18.55,25.48 -12.134,1.898 -23.514,-6.387 -25.435,-18.518 -1.92,-12.131 6.345,-23.526 18.473,-25.467 z"
           id="path14" /></g></g><g
       id="g17"
       transform="scale(0.5)"><path
         id="path3-1"
         d="M 672.35938 416.11328 C 671.7372 416.11834 671.05356 416.15322 670.30469 416.21484 C 664.80769 416.50784 657.94631 416.62619 652.82031 418.36719 C 649.97731 422.43219 644.19241 438.76241 642.31641 444.06641 C 631.54441 474.53541 620.81019 505.46384 610.49219 536.08984 C 603.86519 529.84184 597.16653 526.62203 587.76953 526.83203 C 574.64753 527.12503 561.12422 535.75672 552.32422 545.01172 C 543.04622 554.63472 537.08134 566.12294 531.27734 577.96094 C 521.32134 598.13594 518.84987 621.33716 501.92188 637.53516 C 497.70087 641.57416 491.24084 647.37559 485.58984 641.93359 C 479.82684 636.38159 485.31153 624.94425 487.51953 618.53125 C 492.30753 604.62225 498.97294 591.15206 505.08594 577.78906 C 508.74994 569.85206 516.26322 555.83319 518.19922 547.49219 C 517.75422 545.50619 517.10469 541.57716 515.42969 540.78516 C 506.47669 536.55016 478.16084 552.82038 473.58984 537.85938 C 470.68584 528.35136 478.10775 525.57186 472.21875 512.42188 C 470.28175 511.81288 468.1325 511.07715 466.1875 510.57812 C 462.1475 511.86613 459.68194 512.82625 456.71094 516.15625 C 451.33794 522.17825 447.12919 531.35965 450.11719 539.39062 C 451.50619 543.12662 453.78919 546.38875 455.36719 549.96875 C 447.62319 577.63275 433.17875 636.30822 406.34375 655.69922 C 399.32175 660.77322 396.73141 647.64234 398.94141 643.27734 C 405.49741 617.46334 416.24281 592.61891 423.75781 567.12891 C 426.96581 556.24891 434.27686 542.73091 415.79688 549.25391 C 404.90588 553.09791 406.04616 555.10325 402.78516 564.90625 C 383.75916 531.43625 339.61606 571.2015 330.16406 593.1875 C 323.46806 608.7605 316.73153 621.46484 313.26953 638.58984 C 310.09653 645.92484 300.62075 663.21869 293.59375 666.80469 C 278.11875 674.70369 278.74884 651.26691 280.96484 642.50391 C 287.51884 616.58091 295.86791 589.04215 304.50391 563.70312 C 311.81991 560.63815 327.07119 563.25594 329.49219 556.58594 C 334.89419 541.70494 317.34903 546.77691 310.45703 546.50391 C 312.70103 542.14491 313.17791 538.65566 315.00391 534.72266 C 317.49291 530.24166 321.62953 527.41514 324.39453 523.07812 C 326.25053 520.16712 328.11803 511.57922 330.70703 509.82422 C 394.20203 466.78122 471.20344 445.54944 546.64844 435.89844 C 550.13944 435.45244 555.27547 435.88366 554.60547 430.97266 C 551.93247 428.03066 543.22456 429.30825 539.35156 429.40625 C 473.08056 431.07825 407.47219 449.14186 347.74219 477.42188 C 343.70019 479.33587 334.00447 484.62766 329.98047 482.09766 C 325.87647 475.71766 340.39666 458.68375 330.09766 455.59375 C 328.63366 455.15475 323.16719 455.59888 321.74219 456.79688 C 316.55519 462.43087 311.68994 477.31775 308.46094 484.34375 L 307.95312 484.64453 C 301.71312 488.26153 295.619 489.98884 289.875 494.71484 C 277.585 504.82984 282.86319 519.16486 287.24219 531.67188 C 285.76619 537.71087 283.87403 543.63797 281.58203 549.41797 C 276.12203 549.45597 270.10113 549.45475 265.07812 549.84375 C 257.27312 550.44875 254.79744 560.18125 259.27344 565.15625 C 261.11544 567.20425 273.71284 564.91434 276.46484 564.77734 C 267.48984 594.80234 255.68381 627.06953 254.88281 658.51953 C 254.59181 669.95753 261.99378 687.86787 273.80078 691.42188 C 293.37578 697.31388 307.26834 674.96547 314.27734 660.10547 C 317.22034 668.50947 321.97594 679.96844 330.58594 683.64844 C 349.71894 691.82444 366.39947 674.45909 376.48047 661.49609 C 380.82347 674.52909 390.26441 680.61778 403.81641 675.17578 C 427.06041 665.84378 437.66735 639.97931 447.60938 618.82031 C 453.33438 606.30031 458.44153 589.92209 462.76953 576.87109 C 464.90153 570.45109 466.59494 563.89219 467.83594 557.24219 C 473.06694 558.02319 480.52875 559.26281 485.71875 559.63281 C 476.72575 581.36581 439.37684 650.458 471.83984 665.875 C 486.85284 673.004 511.07975 649.77906 517.84375 637.53906 C 524.52475 655.46206 535.5465 666.16075 556.3125 658.21875 C 566.9735 654.14175 575.713 644.26828 582.25 635.11328 C 584.037 639.61428 585.43234 643.52356 588.40234 647.47656 C 601.14334 664.42856 625.19991 652.05634 635.00391 638.52734 C 637.18091 635.52234 638.85331 631.92112 640.94531 628.82812 C 642.26031 636.04113 643.39106 644.44744 650.03906 648.64844 C 667.10906 659.43844 685.34044 639.36328 693.52344 627.23828 C 697.43344 635.12228 702.74722 646.59709 711.69922 649.49609 C 723.56622 653.33709 739.32997 643.89091 745.16797 633.87891 C 745.97297 635.48691 747.53016 638.78306 748.78516 639.91406 C 775.88216 664.34506 801.18588 639.347 821.67188 621.5 C 822.53787 628.492 824.59759 634.66291 830.43359 639.12891 C 834.93559 642.57391 840.13834 643.42569 845.65234 642.55469 C 865.87134 639.36069 884.39222 622.26894 895.82422 606.21094 C 900.35222 599.85094 913.85366 582.76356 912.47266 574.72656 C 912.17466 572.98956 911.19722 571.77825 909.69922 570.90625 C 908.66622 570.30325 907.76725 570.25394 906.65625 570.58594 C 897.11425 573.43294 881.63434 613.69125 856.40234 620.65625 C 854.33734 621.22625 850.61353 622.15109 848.64453 620.99609 C 847.94253 620.58309 847.63747 619.81785 847.48047 619.04688 C 846.89547 616.17287 847.192 612.90886 847.75 610.04688 C 849.717 599.96686 853.13753 590.18166 856.39453 580.47266 C 862.39053 562.52066 868.87475 544.73764 875.84375 527.14062 C 878.75775 519.72663 882.703 508.40484 886 501.71484 C 890.813 501.29684 895.74869 500.93609 900.55469 500.49609 C 911.35069 499.50809 912.973 494.71594 912.5 485.08594 C 906.729 484.98994 898.51306 485.19006 893.03906 484.78906 C 895.43306 478.76206 909.24625 445.64256 907.40625 441.47656 C 907.06725 440.70856 905.74794 440.10634 904.96094 439.90234 C 898.86794 438.32234 888.43559 441.28519 882.55859 443.36719 C 875.59159 454.32619 872.29378 470.68472 866.05078 482.51172 C 860.45078 493.12072 846.65364 483.10878 841.64062 492.05078 C 832.77963 507.85778 850.79653 503.66059 858.51953 503.05859 C 856.51453 510.89659 851.60744 521.32491 848.77344 529.25391 C 844.25344 541.90491 839.78875 554.42216 834.96875 567.03516 C 830.40375 578.98416 827.28847 592.36666 821.98047 603.84766 C 820.69047 606.63766 814.62869 611.8405 812.05469 613.9375 C 817.01669 588.8865 809.83422 570.09244 807.07422 545.77344 C 805.76522 534.23644 809.76447 523.30034 811.10547 512.02734 C 808.29447 511.97434 805.51694 511.87631 802.71094 512.07031 C 793.37794 518.82531 785.48175 537.97985 780.21875 548.17188 C 769.81075 568.32587 748.65922 617.73036 729.69922 628.23438 C 726.61822 627.14137 720.97947 625.32294 719.73047 621.96094 C 716.56547 613.43794 722.73812 600.56216 725.32812 593.53516 C 729.27414 582.82816 751.38431 536.04106 749.82031 527.16406 C 746.96931 523.30306 730.15391 527.22284 726.00391 529.08984 L 711.75 564.62109 C 705.688 580.15109 692.65584 621.14278 676.96484 628.05078 C 674.61184 629.08578 672.75866 628.67741 670.47266 627.69141 C 668.51566 626.84741 666.29203 625.54525 665.58203 623.40625 C 660.97503 609.51025 691.44031 551.172 693.69531 533.375 C 693.88331 531.891 694.09164 529.03175 692.51562 528.21875 C 688.75162 526.28075 674.99628 526.93831 670.98828 528.44531 C 668.49928 529.38031 667.21134 532.56828 666.27734 534.86328 C 657.10234 557.39028 640.30881 623.73903 617.50781 633.08203 C 614.91681 634.14403 611.63472 634.39625 609.01172 633.28125 C 607.47672 632.62825 606.23409 631.41547 605.62109 629.85547 C 604.51309 627.03347 605.18747 624.03536 605.98047 621.23438 C 608.17847 613.46338 611.25236 605.91519 614.10938 598.36719 L 627.97266 561.73047 L 664.33203 460.15625 C 668.10303 449.88125 671.66553 439.52837 675.01953 429.10938 C 677.29766 422.14656 681.69193 416.03743 672.35938 416.11328 z M 592.46094 544.13672 C 612.86394 544.50472 597.80866 568.86019 593.84766 577.74219 C 586.40266 594.44119 575.78066 637.11714 553.59766 638.20312 C 539.09266 637.38513 540.59581 625.77556 543.88281 614.85156 C 550.58481 592.57756 566.19294 548.06472 592.46094 544.13672 z M 785.10938 569.29297 C 788.05337 572.13397 788.14212 583.78341 788.20312 588.19141 C 788.38612 601.23341 787.01078 620.27541 774.05078 627.44141 C 770.97278 629.14341 767.61438 628.26291 764.48438 627.12891 C 752.45338 618.20391 764.79884 612.13013 768.58984 602.82812 C 769.25584 601.19412 771.18894 597.69528 772.08594 596.11328 C 776.97394 587.49028 780.44938 577.94997 785.10938 569.29297 z M 383.58594 570.58984 C 387.45642 570.79093 391.27673 572.54219 392.60938 576.41406 C 396.19937 586.90806 388.05397 598.23309 384.91797 607.99609 C 379.48297 624.91509 369.58069 655.58713 351.92969 663.07812 C 323.12569 667.26815 353.58935 599.79909 359.98438 588.87109 C 365.44637 579.53809 371.32959 573.40666 381.93359 570.59766 C 382.48147 570.56478 383.03301 570.56112 383.58594 570.58984 z "
         style="fill:#c72603;fill-opacity:1" /><path
         fill="#c72603"
         d="m 221.342,420.718 c 22.043,-0.784 42.777,8.457 50.815,30.135 8.753,23.608 -6.994,55.75 -30.507,63.926 -1.794,-1.287 -1.957,-1.393 -3.316,-3.096 -1.386,-4.951 6.963,-12.64 9.715,-17.51 8.046,-14.241 13.012,-39.148 -5.405,-47.913 -21.33,-10.152 -47.258,-5.853 -58.215,16.816 -3.32,6.868 -4.083,13.662 -4.167,21.182 -1.141,21.617 8.665,40.148 19.914,57.816 13.28,21.979 30.05,43.656 38.558,68.186 8.929,25.744 5.67,55.96 -6.452,80.236 -10.483,21.497 -29.129,37.907 -51.783,45.574 -18.245,6.092 -37.288,5.58 -54.613,-3.08 -10.749,-6.468 -16.579,-12.045 -21.621,-23.984 -6.259,-14.46 -6.2964,-30.857 -0.103,-45.346 8.113,-19.383 23.989,-32.902 43.125,-40.955 2.742,-1.154 7.706,-2.991 10.459,-1.823 1.783,2.626 -0.002,6.118 -2.139,8.008 -15.544,13.749 -29.531,30.963 -29.743,52.665 -0.215,22.131 19.904,32.396 39.498,30.838 13.056,-1.129 25.58,-8.45 34.319,-18.223 7.406,-8.386 12.526,-18.54 14.863,-29.481 11.95,-57.216 -58.67,-102.992 -61.65,-160.168 -2.214,-42.5 23.622,-81.991 68.448,-83.803 z"
         id="path7-9" /><path
         fill="#c72603"
         d="m 646.964,691.224 c 37.916,-1.338 75.841,2.4 112.766,11.114 5.514,1.281 19.793,3.019 20.666,9.23 -3.02,2.32 -25.142,-0.175 -30.553,-0.409 -21.576,-1.078 -43.183,-1.394 -64.781,-0.946 -93.089,2.598 -191.181,18.932 -282.197,38.85 -16.068,3.516 -31.859,8.363 -47.753,12.564 -26.08,7.205 -51.846,16.217 -77.375,25.095 -5.079,1.766 -22.596,10.775 -25.76,5.841 0.133,-0.871 0.2,-1.95 1.092,-2.467 63.111,-36.541 140.836,-62.425 211.866,-76.142 60.81,-11.744 121.568,-20.445 182.029,-22.73 z"
         id="path8-3" /><path
         fill="#f5e1b7"
         d="m 825.137,178.715 c 5.067,2.957 5.664,17.551 6.412,23.488 1.538,13.09 2.971,26.192 4.299,39.305 0.721,7.094 1.208,15.275 2.47,22.143 7.17,-5.248 29.368,-27.703 37.931,-24.278 5.37,6.233 -21.18,30.418 -26.324,36.347 9.369,1.915 55.753,6.299 59.865,11.64 0.5,0.648 0.251,0.985 0.147,1.731 -5.019,5.176 -50.109,8.811 -59.292,9.499 4.306,5.251 28.122,31.89 22.865,37.303 -7.366,1.811 -27.026,-18.848 -34.844,-23.201 -1.581,15.766 -3.259,31.506 -5.328,47.221 -1.301,9.885 -2.604,23.75 -5.202,33.13 -0.895,1.73 -1.61,3.23 -3.536,3.731 -3.84,-3.575 -5.916,-32.838 -6.516,-39.215 -1.395,-15.16 -2.889,-30.31 -4.48,-45.449 -6.507,4.408 -28.679,23.983 -34.885,23.092 -4.461,-4.572 18.256,-31.764 22.262,-36.152 -8.051,-1.472 -58.57,-5.878 -59.04,-11.759 4.193,-5.457 49.941,-9.221 59.849,-11.364 l 0.697,-0.154 c -6.41,-6.562 -22.461,-28.69 -25.084,-37.28 4.895,-6.307 32.162,19.393 36.081,22.891 0.147,-4.245 0.475,-8.54 0.986,-12.77 2.576,-21.359 4.233,-42.964 8.09,-64.132 0.404,-2.216 1.283,-3.954 2.577,-5.767 z"
         id="path9-6" /><path
         fill="#f5e1b7"
         d="m 776.935,416.565 c 6.631,-0.266 13.546,2.524 18.496,7.041 21.137,19.284 21.617,46.506 2.921,67.761 -7.987,9.079 -16.988,13.624 -29.064,14.236 -4.517,0.017 -17.612,-2.337 -20.123,-5.79 0.725,-2.107 13.866,-5.679 17.362,-7.493 23.143,-12.011 31.763,-40.657 18.6,-63.265 -2.168,-3.723 -5.702,-7.816 -7.768,-11.68 z"
         id="path15-8" /><path
         fill="#c72603"
         d="m 514.545,777.284 c 1.943,4.027 2.246,8.95 5.586,13.369 4.208,5.567 11.275,6.71 17.718,7.838 -15.923,4.034 -18.196,6.97 -23.221,22.155 -3.799,-14.552 -8.62,-19.795 -23.826,-22.104 15.504,-1.971 19.704,-6.727 23.743,-21.258 z"
         id="path16-7" /><path
         fill="#c72603"
         d="m 708.148,358.44 c 6.085,-1.176 11.963,2.834 13.087,8.929 1.124,6.095 -2.936,11.938 -9.041,13.01 -6.031,1.058 -11.788,-2.942 -12.898,-8.964 -1.111,-6.021 2.84,-11.812 8.852,-12.975 z"
         id="path17-9" /><path
         fill="#c72603"
         d="m 828.748,686.574 c 2.5,-0.005 4.368,-0.095 6.647,1.017 2.722,1.332 4.797,3.699 5.761,6.572 2.273,6.805 -1.348,11.88 -7.854,13.851 -6.056,0.474 -11.586,-0.599 -13.542,-7.299 -0.87,-2.897 -0.501,-6.026 1.02,-8.641 1.907,-3.214 4.498,-4.595 7.968,-5.5 z"
         id="path18" /><path
         fill="#c72603"
         d="m 621.519,764.068 c 3.562,-0.195 6.767,0.398 8.785,3.671 1.024,1.627 1.268,3.626 0.664,5.451 -0.899,2.782 -2.817,4.072 -5.218,5.407 -2.91,0.418 -6.601,-0.235 -8.211,-2.76 -3.598,-5.637 -0.117,-9.034 3.98,-11.769 z"
         id="path19" /></g></g></svg>
